<svg width="36" height="36" viewBox="0 0 36 36" fill="none" xmlns="http://www.w3.org/2000/svg">
<path d="M19.1429 3.52853C18.8627 3.19889 18.4539 3.00628 18.0213 3.00015C17.5887 2.99402 17.1745 3.17498 16.8851 3.49655L3.38509 18.4966C2.98881 18.9369 2.88878 19.5691 3.12978 20.1103C3.37078 20.6514 3.90766 21 4.50003 21H7.50003V30C7.50003 30.8284 8.1716 31.5 9.00003 31.5H15V24H21V31.5H27C27.8285 31.5 28.5 30.8284 28.5 30V21H30.75C31.3347 21 31.8661 20.6603 32.1115 20.1296C32.3569 19.5989 32.2716 18.974 31.8929 18.5285L19.1429 3.52853Z" fill="white"/>
</svg>
